<svg width="46" height="46" viewBox="0 0 46 46" fill="none" xmlns="http://www.w3.org/2000/svg">
<path fill-rule="evenodd" clip-rule="evenodd" d="M21 28L21 1L24 1L24 28C24 28.8284 23.3284 29.5 22.5 29.5C21.6716 29.5 21 28.8284 21 28Z" fill="white"/>
<path fill-rule="evenodd" clip-rule="evenodd" d="M37.5791 24.0419L27.2421 34.7481C24.6542 37.4284 20.3475 37.3893 17.8087 34.6625L7.90216 24.0221L10.0978 21.9779L20.0043 32.6182C21.3714 34.0865 23.6904 34.1076 25.0839 32.6643L35.4209 21.9581L37.5791 24.0419Z" fill="white"/>
<path fill-rule="evenodd" clip-rule="evenodd" d="M46 45H0V42H46V45Z" fill="white"/>
<path fill-rule="evenodd" clip-rule="evenodd" d="M33 45L33 39L12 39L12 45L15 45L15 42L30 42L30 45L33 45Z" fill="white"/>
</svg>
