<svg width="46" height="46" viewBox="0 0 46 46" fill="none" xmlns="http://www.w3.org/2000/svg">
<path fill-rule="evenodd" clip-rule="evenodd" d="M10.1161 23.8839C9.62796 23.3957 9.62796 22.6043 10.1161 22.1161L18.0711 14.1612C18.5592 13.673 19.3507 13.673 19.8388 14.1612C20.327 14.6493 20.327 15.4408 19.8388 15.9289L14.0178 21.75L31.9822 21.75L26.1612 15.9289C25.673 15.4408 25.673 14.6493 26.1612 14.1612C26.6493 13.673 27.4408 13.673 27.9289 14.1612L35.8839 22.1161C36.372 22.6043 36.372 23.3957 35.8839 23.8839L27.9289 31.8388C27.4408 32.327 26.6493 32.327 26.1612 31.8388C25.673 31.3507 25.673 30.5592 26.1612 30.0711L31.9822 24.25L14.0178 24.25L19.8388 30.0711C20.327 30.5592 20.327 31.3507 19.8388 31.8388C19.3507 32.327 18.5592 32.327 18.0711 31.8388L10.1161 23.8839Z" fill="white"/>
<path d="M6 45L1 45L0.999996 1L6 1L6 45Z" fill="white"/>
<path fill-rule="evenodd" clip-rule="evenodd" d="M6 45L6 1L0.999996 1L1 45L6 45Z" fill="white"/>
<path d="M45 45L40 45L40 1L45 1L45 45Z" fill="white"/>
<path fill-rule="evenodd" clip-rule="evenodd" d="M45 45L45 1L40 1L40 45L45 45Z" fill="white"/>
</svg>
