<svg width="46" height="46" viewBox="0 0 46 46" fill="none" xmlns="http://www.w3.org/2000/svg">
<path fill-rule="evenodd" clip-rule="evenodd" d="M22.1563 28.8009C22.6223 28.3379 23.3777 28.3379 23.8437 28.8009L31.4371 36.3458C31.903 36.8088 31.903 37.5594 31.4371 38.0224C30.9711 38.4854 30.2156 38.4854 29.7497 38.0224L24.1932 32.5014L24.1932 44.8144C24.1932 45.4692 23.659 46 23 46C22.341 46 21.8068 45.4692 21.8068 44.8144L21.8068 32.5014L16.2503 38.0224C15.7844 38.4854 15.0289 38.4854 14.5629 38.0224C14.097 37.5594 14.097 36.8088 14.5629 36.3458L22.1563 28.8009Z" fill="white"/>
<path fill-rule="evenodd" clip-rule="evenodd" d="M23.8437 17.1991C23.3777 17.6621 22.6223 17.6621 22.1563 17.1991L14.5629 9.65424C14.097 9.19125 14.097 8.44059 14.5629 7.97759C15.0289 7.5146 15.7844 7.5146 16.2503 7.97759L21.8068 13.4986L21.8068 1.18556C21.8068 0.530791 22.341 -6.43267e-06 23 -6.46129e-06C23.659 -6.48992e-06 24.1932 0.530791 24.1932 1.18556L24.1932 13.4986L29.7497 7.97759C30.2156 7.5146 30.9711 7.5146 31.4371 7.97759C31.903 8.44059 31.903 9.19125 31.4371 9.65424L23.8437 17.1991Z" fill="white"/>
<path d="M2 25.8453L2 21.1031L44 21.1031L44 25.8453L2 25.8453Z" fill="white"/>
<path fill-rule="evenodd" clip-rule="evenodd" d="M2 25.8453L44 25.8453L44 21.1031L2 21.1031L2 25.8453Z" fill="white"/>
</svg>
