<svg width="1094" height="730" viewBox="0 0 1094 730" fill="none" xmlns="http://www.w3.org/2000/svg">
<mask id="mask0_2_39" style="mask-type:alpha" maskUnits="userSpaceOnUse" x="0" y="0" width="1094" height="730">
<rect width="1094" height="730" fill="#D9D9D9"/>
</mask>
<g mask="url(#mask0_2_39)">
<path d="M379.677 -1.1712V236.87C403.015 257.773 436.539 317.841 383.939 390.897C407.682 424.381 383.939 390.897 407.682 424.381L433.252 390.897C430.208 383.592 491.088 305.056 491.088 305.056C491.088 305.056 491.088 157.117 491.088 109.022H479.521V68.841H491.088V-1.1712" stroke="#ED1D24" stroke-width="1.2176"/>
<path d="M380.895 121.807H435.078V-0.562378" stroke="#ED1D24" stroke-width="1.2176"/>
<path d="M498.394 -0.562378V79.7995H484.391V95.6283H518.484L556.839 20.7457V-0.562378" stroke="#ED1D24" stroke-width="1.2176"/>
<path d="M517.266 96.2372L668.249 99.8901L702.951 37.7923M702.951 37.7923V9.17857L556.23 -13.3471V18.9194L702.951 37.7923Z" stroke="#ED1D24" stroke-width="1.2176"/>
<path d="M270.093 327.582L257.917 340.975L368.11 429.252C381.91 441.428 417.667 458.474 450.298 429.252C482.93 400.029 871.386 131.345 1061.54 0.655151" stroke="#ED1D24" stroke-width="1.2176"/>
<path d="M271.31 326.973L380.895 412.814C389.012 421.337 412.065 433.27 439.34 412.814C466.614 392.358 841.149 128.707 1025.01 -0.562347L1050.58 -17L1060.93 -0.562347" stroke="#ED1D24" stroke-width="1.2176"/>
<path d="M243.306 375.677H292.619L309.665 385.418L328.538 436.557V446.907L368.11 547.968C404.638 602.517 438.528 570.697 450.907 547.968C468.562 502.308 505.09 408.187 509.961 396.985C514.831 385.783 521.731 381.359 524.572 380.548C538.98 382.171 569.989 385.418 578.755 385.418C587.522 385.418 588.902 393.13 588.496 396.985C588.293 477.144 588.009 638.314 588.496 641.724C588.983 645.133 585.858 648.015 584.235 649.029C571.856 648.218 545.88 646.594 541.01 646.594C536.139 646.594 534.11 651.059 533.704 653.291V692.254L483.174 730C423.308 725.333 301.994 715.876 295.663 715.389C289.331 714.902 287.342 710.315 287.139 708.083L285.313 631.983C276.384 630.968 256.09 629.061 246.35 629.548C236.609 630.035 235.391 621.227 236 616.763C235.188 542.895 233.565 393.211 233.565 385.418C233.565 377.625 240.059 375.677 243.306 375.677Z" stroke="#ED1D24" stroke-width="1.2176"/>
<path d="M522.746 381.157L711.474 314.797H757.134C759.976 318.044 765.414 327.46 764.44 339.149C763.466 350.838 764.034 463.751 764.44 518.746L587.888 649.029" stroke="#ED1D24" stroke-width="1.2176"/>
<path d="M583.017 385.418L757.743 316.015" stroke="#ED1D24" stroke-width="1.2176"/>
<path d="M589.105 404.291L762.005 337.323" stroke="#ED1D24" stroke-width="1.2176"/>
<path d="M492.306 109.631H687.731V235.044L637.2 271.572L492.306 302.621" stroke="#ED1D24" stroke-width="1.2176"/>
<path d="M432.643 391.506L493.048 374.732" stroke="#ED1D24" stroke-width="1.2176"/>
<path d="M-13 375.068L7.69926 368.372L248.176 375.068L243.306 314.797H87.4523V274.007H1.00244H-13" stroke="#ED1D24" stroke-width="1.2176"/>
<path d="M-13 256.352H186.078L191.557 295.924H335.843V311.144L271.919 325.755" stroke="#ED1D24" stroke-width="1.2176"/>
<path d="M242.697 314.797L336.452 295.924" stroke="#ED1D24" stroke-width="1.2176"/>
<path d="M-9.34717 233.218H293.227H334.626V269.746H402.203" stroke="#ED1D24" stroke-width="1.2176"/>
<path d="M-9.34717 246.002H260.352V280.704L393.071 285.575L398.55 331.843H409.509" stroke="#ED1D24" stroke-width="1.2176"/>
<path d="M687.682 322.993L1093.8 40.2274L1049.36 -17" stroke="#ED1D24" stroke-width="1.2176"/>
</g>
</svg>
