<svg width="744" height="580" viewBox="0 0 744 580" fill="none" xmlns="http://www.w3.org/2000/svg">
<g clip-path="url(#clip0_338_374)">
<path d="M52.1031 296.454L51.9863 327.689C51.9863 334.439 61.2712 339.903 72.6875 339.903C84.1038 339.903 93.0967 334.439 93.0967 327.689L93.2134 325.731V296.367" fill="white"/>
<path d="M52.1031 296.454L51.9863 327.689C51.9863 334.439 61.2712 339.903 72.6875 339.903C84.1038 339.903 93.0967 334.439 93.0967 327.689L93.2134 325.731V296.367" stroke="#ED1D24" stroke-linecap="round" stroke-linejoin="round"/>
<path d="M72.6875 307.645C84.1204 307.645 93.3886 302.177 93.3886 295.432C93.3886 288.686 84.1204 283.218 72.6875 283.218C61.2545 283.218 51.9863 288.686 51.9863 295.432C51.9863 302.177 61.2545 307.645 72.6875 307.645Z" fill="#ED1D24"/>
<path d="M72.6875 307.645C84.1204 307.645 93.3886 302.177 93.3886 295.432C93.3886 288.686 84.1204 283.218 72.6875 283.218C61.2545 283.218 51.9863 288.686 51.9863 295.432C51.9863 302.177 61.2545 307.645 72.6875 307.645Z" stroke="#ED1D24" stroke-linecap="round" stroke-linejoin="round"/>
<path d="M97.2423 322.693L97.1255 353.927C97.1255 360.677 106.41 366.141 117.827 366.141C129.243 366.141 138.236 360.677 138.236 353.927L138.353 351.97V322.605" fill="white"/>
<path d="M97.2423 322.693L97.1255 353.927C97.1255 360.677 106.41 366.141 117.827 366.141C129.243 366.141 138.236 360.677 138.236 353.927L138.353 351.97V322.605" stroke="#ED1D24" stroke-linecap="round" stroke-linejoin="round"/>
<path d="M117.827 333.883C129.26 333.883 138.528 328.415 138.528 321.67C138.528 314.925 129.26 309.457 117.827 309.457C106.394 309.457 97.1255 314.925 97.1255 321.67C97.1255 328.415 106.394 333.883 117.827 333.883Z" fill="#ED1D24"/>
<path d="M117.827 333.883C129.26 333.883 138.528 328.415 138.528 321.67C138.528 314.925 129.26 309.457 117.827 309.457C106.394 309.457 97.1255 314.925 97.1255 321.67C97.1255 328.415 106.394 333.883 117.827 333.883Z" stroke="#ED1D24" stroke-linecap="round" stroke-linejoin="round"/>
<path d="M2.05819 322.693L1.94141 353.927C1.94141 360.677 11.2263 366.141 22.6426 366.141C34.0588 366.141 43.0517 360.677 43.0517 353.927L43.1685 351.97V322.605" fill="white"/>
<path d="M2.05819 322.693L1.94141 353.927C1.94141 360.677 11.2263 366.141 22.6426 366.141C34.0588 366.141 43.0517 360.677 43.0517 353.927L43.1685 351.97V322.605" stroke="#ED1D24" stroke-linecap="round" stroke-linejoin="round"/>
<path d="M22.6426 333.883C34.0755 333.883 43.3437 328.415 43.3437 321.67C43.3437 314.925 34.0755 309.457 22.6426 309.457C11.2096 309.457 1.94141 314.925 1.94141 321.67C1.94141 328.415 11.2096 333.883 22.6426 333.883Z" fill="#ED1D24"/>
<path d="M22.6426 333.883C34.0755 333.883 43.3437 328.415 43.3437 321.67C43.3437 314.925 34.0755 309.457 22.6426 309.457C11.2096 309.457 1.94141 314.925 1.94141 321.67C1.94141 328.415 11.2096 333.883 22.6426 333.883Z" stroke="#ED1D24" stroke-linecap="round" stroke-linejoin="round"/>
<path d="M47.1978 348.902L47.0811 380.137C47.0811 386.886 56.3659 392.35 67.7822 392.35C79.1985 392.35 88.1914 386.886 88.1914 380.137L88.3082 378.179V348.814" fill="white"/>
<path d="M47.1978 348.902L47.0811 380.137C47.0811 386.886 56.3659 392.35 67.7822 392.35C79.1985 392.35 88.1914 386.886 88.1914 380.137L88.3082 378.179V348.814" stroke="#ED1D24" stroke-linecap="round" stroke-linejoin="round"/>
<path d="M67.7822 360.122C79.2151 360.122 88.4833 354.654 88.4833 347.908C88.4833 341.163 79.2151 335.695 67.7822 335.695C56.3493 335.695 47.0811 341.163 47.0811 347.908C47.0811 354.654 56.3493 360.122 67.7822 360.122Z" fill="#ED1D24"/>
<path d="M67.7822 360.122C79.2151 360.122 88.4833 354.654 88.4833 347.908C88.4833 341.163 79.2151 335.695 67.7822 335.695C56.3493 335.695 47.0811 341.163 47.0811 347.908C47.0811 354.654 56.3493 360.122 67.7822 360.122Z" stroke="#ED1D24" stroke-linecap="round" stroke-linejoin="round"/>
<path d="M248.954 334.03L248.837 365.265C248.837 372.014 258.122 377.478 269.538 377.478C280.954 377.478 289.947 372.014 289.947 365.265L290.064 363.307V333.942" fill="white"/>
<path d="M248.954 334.03L248.837 365.265C248.837 372.014 258.122 377.478 269.538 377.478C280.954 377.478 289.947 372.014 289.947 365.265L290.064 363.307V333.942" stroke="#ED1D24" stroke-linecap="round" stroke-linejoin="round"/>
<path d="M269.538 345.221C280.971 345.221 290.239 339.752 290.239 333.007C290.239 326.262 280.971 320.794 269.538 320.794C258.105 320.794 248.837 326.262 248.837 333.007C248.837 339.752 258.105 345.221 269.538 345.221Z" fill="#ED1D24"/>
<path d="M269.538 345.221C280.971 345.221 290.239 339.752 290.239 333.007C290.239 326.262 280.971 320.794 269.538 320.794C258.105 320.794 248.837 326.262 248.837 333.007C248.837 339.752 258.105 345.221 269.538 345.221Z" stroke="#ED1D24" stroke-linecap="round" stroke-linejoin="round"/>
<path d="M168.544 284.329L168.427 315.563C168.427 322.313 177.712 327.777 189.128 327.777C200.544 327.777 209.537 322.313 209.537 315.563L209.654 313.606V284.241" fill="white"/>
<path d="M168.544 284.329L168.427 315.563C168.427 322.313 177.712 327.777 189.128 327.777C200.544 327.777 209.537 322.313 209.537 315.563L209.654 313.606V284.241" stroke="#ED1D24" stroke-linecap="round" stroke-linejoin="round"/>
<path d="M189.128 295.519C200.561 295.519 209.829 290.051 209.829 283.306C209.829 276.561 200.561 271.093 189.128 271.093C177.695 271.093 168.427 276.561 168.427 283.306C168.427 290.051 177.695 295.519 189.128 295.519Z" fill="#ED1D24"/>
<path d="M189.128 295.519C200.561 295.519 209.829 290.051 209.829 283.306C209.829 276.561 200.561 271.093 189.128 271.093C177.695 271.093 168.427 276.561 168.427 283.306C168.427 290.051 177.695 295.519 189.128 295.519Z" stroke="#ED1D24" stroke-linecap="round" stroke-linejoin="round"/>
<path d="M88.1329 236.994L88.0161 268.229C88.0161 274.979 97.301 280.443 108.717 280.443C120.134 280.443 129.126 274.979 129.126 268.229L129.243 266.272V236.907" fill="white"/>
<path d="M88.1329 236.994L88.0161 268.229C88.0161 274.979 97.301 280.443 108.717 280.443C120.134 280.443 129.126 274.979 129.126 268.229L129.243 266.272V236.907" stroke="#ED1D24" stroke-linecap="round" stroke-linejoin="round"/>
<path d="M108.717 248.185C120.15 248.185 129.418 242.717 129.418 235.972C129.418 229.226 120.15 223.758 108.717 223.758C97.2843 223.758 88.0161 229.226 88.0161 235.972C88.0161 242.717 97.2843 248.185 108.717 248.185Z" fill="#ED1D24"/>
<path d="M108.717 248.185C120.15 248.185 129.418 242.717 129.418 235.972C129.418 229.226 120.15 223.758 108.717 223.758C97.2843 223.758 88.0161 229.226 88.0161 235.972C88.0161 242.717 97.2843 248.185 108.717 248.185Z" stroke="#ED1D24" stroke-linecap="round" stroke-linejoin="round"/>
<path d="M393.073 317.053L114.002 153.37L45.0371 193.605L323.7 358.077L393.073 317.053Z" fill="white"/>
<path d="M393.073 317.053L114.002 153.37L45.0371 193.605L323.7 358.077L393.073 317.053Z" stroke="#ED1D24" stroke-linecap="round" stroke-linejoin="round"/>
<path d="M323.7 358.077V385.688L44.9497 221.508L45.0373 193.604L323.7 358.077Z" fill="white"/>
<path d="M323.7 358.077V385.688L44.9497 221.508L45.0373 193.604L323.7 358.077Z" stroke="#ED1D24" stroke-linecap="round" stroke-linejoin="round"/>
<path d="M393.074 317.053V343.993L323.7 385.688V358.077L393.074 317.053Z" fill="white"/>
<path d="M393.074 317.053V343.993L323.7 385.688V358.077L393.074 317.053Z" stroke="#ED1D24" stroke-linecap="round" stroke-linejoin="round"/>
<path d="M319.408 344.227L60.4536 195.036" stroke="white" stroke-linecap="round" stroke-linejoin="round"/>
<path d="M372.08 313.664L113.155 164.503" stroke="white" stroke-linecap="round" stroke-linejoin="round"/>
<path d="M267.699 344.957C268.399 351.59 274.005 356.995 280.195 356.995C286.385 356.995 290.823 351.619 290.123 344.957C289.422 338.325 283.816 332.919 277.626 332.919C271.436 332.919 266.998 338.295 267.699 344.957Z" fill="white"/>
<path d="M202.53 306.798C203.231 313.431 208.837 318.836 215.026 318.836C221.216 318.836 225.654 313.46 224.954 306.798C224.253 300.165 218.647 294.76 212.457 294.76C206.267 294.76 201.829 300.136 202.53 306.798Z" fill="white"/>
<path d="M137.331 268.638C138.032 275.271 143.638 280.676 149.828 280.676C156.018 280.676 160.456 275.3 159.755 268.638C159.054 262.006 153.448 256.6 147.258 256.6C141.068 256.6 136.63 261.976 137.331 268.638Z" fill="white"/>
<path d="M72.1323 230.479C72.8331 237.111 78.439 242.517 84.6289 242.517C90.8189 242.517 95.2569 237.14 94.5562 230.479C93.8554 223.817 88.2495 218.44 82.0595 218.44C75.8696 218.44 71.4316 223.817 72.1323 230.479Z" fill="white"/>
<path d="M267.699 344.957C268.399 351.59 274.005 356.995 280.195 356.995C286.385 356.995 290.823 351.619 290.123 344.957C289.422 338.325 283.816 332.919 277.626 332.919C271.436 332.919 266.998 338.295 267.699 344.957Z" stroke="#ED1D24" stroke-linecap="round" stroke-linejoin="round"/>
<path d="M202.53 306.798C203.231 313.431 208.837 318.836 215.026 318.836C221.216 318.836 225.654 313.46 224.954 306.798C224.253 300.165 218.647 294.76 212.457 294.76C206.267 294.76 201.829 300.136 202.53 306.798Z" stroke="#ED1D24" stroke-linecap="round" stroke-linejoin="round"/>
<path d="M137.331 268.638C138.032 275.271 143.638 280.676 149.828 280.676C156.018 280.676 160.456 275.3 159.755 268.638C159.054 262.006 153.448 256.6 147.258 256.6C141.068 256.6 136.63 261.976 137.331 268.638Z" stroke="#ED1D24" stroke-linecap="round" stroke-linejoin="round"/>
<path d="M72.1323 230.479C72.8331 237.111 78.439 242.517 84.6289 242.517C90.8189 242.517 95.2569 237.14 94.5562 230.479C93.8554 223.817 88.2495 218.44 82.0595 218.44C75.8696 218.44 71.4316 223.817 72.1323 230.479Z" stroke="#ED1D24" stroke-linecap="round" stroke-linejoin="round"/>
<path d="M118.499 215.46L141.711 201.99V185.891L118.207 200.091L118.499 215.46Z" fill="white"/>
<path d="M118.499 215.46L141.711 201.99V185.891L118.207 200.091L118.499 215.46Z" stroke="#ED1D24" stroke-linecap="round" stroke-linejoin="round"/>
<path d="M118.353 199.478L94.9946 186.329V201.99L118.499 215.46L118.353 199.478Z" fill="white"/>
<path d="M118.353 199.478L94.9946 186.329V201.99L118.499 215.46L118.353 199.478Z" stroke="#ED1D24" stroke-linecap="round" stroke-linejoin="round"/>
<path d="M141.711 185.891C141.273 186.037 118.791 172.713 118.791 172.713L94.9946 186.329L118.353 199.507L141.711 185.891Z" fill="white"/>
<path d="M141.711 185.891C141.273 186.037 118.791 172.713 118.791 172.713L94.9946 186.329L118.353 199.507L141.711 185.891Z" stroke="#ED1D24" stroke-linecap="round" stroke-linejoin="round"/>
<path d="M115.083 178.615C115.083 179.726 116.221 180.602 117.652 180.602C119.083 180.602 120.221 179.726 120.221 178.615C120.221 177.505 119.083 176.628 117.652 176.628C116.221 176.628 115.083 177.505 115.083 178.615Z" fill="#ED1D24"/>
<path d="M109.594 182.122C109.594 183.232 110.732 184.109 112.163 184.109C113.594 184.109 114.733 183.232 114.733 182.122C114.733 181.011 113.594 180.135 112.163 180.135C110.732 180.135 109.594 181.011 109.594 182.122Z" fill="#ED1D24"/>
<path d="M105.857 187.673C107.276 187.673 108.426 186.783 108.426 185.686C108.426 184.589 107.276 183.699 105.857 183.699C104.437 183.699 103.287 184.589 103.287 185.686C103.287 186.783 104.437 187.673 105.857 187.673Z" fill="#ED1D24"/>
<path d="M130.849 197.111L120.864 202.925L120.922 209.763L130.849 204.006V197.111Z" fill="#ED1D24"/>
<path d="M165.39 242.692L188.602 229.222V213.094L165.098 227.294L165.39 242.692Z" fill="white"/>
<path d="M165.39 242.692L188.602 229.222V213.094L165.098 227.294L165.39 242.692Z" stroke="#ED1D24" stroke-linecap="round" stroke-linejoin="round"/>
<path d="M165.244 226.709L141.915 213.532V229.222L165.39 242.692L165.244 226.709Z" fill="white"/>
<path d="M165.244 226.709L141.915 213.532V229.222L165.39 242.692L165.244 226.709Z" stroke="#ED1D24" stroke-linecap="round" stroke-linejoin="round"/>
<path d="M188.602 213.093C188.164 213.24 165.682 199.916 165.682 199.916L141.886 213.532L165.244 226.709L188.602 213.093Z" fill="white"/>
<path d="M188.602 213.093C188.164 213.24 165.682 199.916 165.682 199.916L141.886 213.532L165.244 226.709L188.602 213.093Z" stroke="#ED1D24" stroke-linecap="round" stroke-linejoin="round"/>
<path d="M162.003 205.818C162.003 206.928 163.142 207.805 164.572 207.805C166.003 207.805 167.142 206.928 167.142 205.818C167.142 204.708 166.003 203.831 164.572 203.831C163.142 203.831 162.003 204.708 162.003 205.818Z" fill="#ED1D24"/>
<path d="M156.485 209.353C156.485 210.464 157.624 211.34 159.055 211.34C160.485 211.34 161.624 210.464 161.624 209.353C161.624 208.243 160.485 207.366 159.055 207.366C157.624 207.366 156.485 208.243 156.485 209.353Z" fill="#ED1D24"/>
<path d="M152.748 214.876C154.167 214.876 155.317 213.986 155.317 212.889C155.317 211.791 154.167 210.902 152.748 210.902C151.329 210.902 150.178 211.791 150.178 212.889C150.178 213.986 151.329 214.876 152.748 214.876Z" fill="#ED1D24"/>
<path d="M177.77 224.313L167.755 230.157L167.843 236.994L177.77 231.238V224.313Z" fill="#ED1D24"/>
<path d="M212.311 269.895L235.523 256.425V240.325L212.019 254.525L212.311 269.895Z" fill="white"/>
<path d="M212.311 269.895L235.523 256.425V240.325L212.019 254.525L212.311 269.895Z" stroke="#ED1D24" stroke-linecap="round" stroke-linejoin="round"/>
<path d="M212.165 253.912L188.807 240.763V256.425L212.311 269.894L212.165 253.912Z" fill="white"/>
<path d="M212.165 253.912L188.807 240.763V256.425L212.311 269.894L212.165 253.912Z" stroke="#ED1D24" stroke-linecap="round" stroke-linejoin="round"/>
<path d="M235.523 240.325C235.085 240.471 212.603 227.147 212.603 227.147L188.807 240.763L212.165 253.941L235.523 240.325Z" fill="white"/>
<path d="M235.523 240.325C235.085 240.471 212.603 227.147 212.603 227.147L188.807 240.763L212.165 253.941L235.523 240.325Z" stroke="#ED1D24" stroke-linecap="round" stroke-linejoin="round"/>
<path d="M208.895 233.05C208.895 234.16 210.033 235.036 211.464 235.036C212.895 235.036 214.033 234.16 214.033 233.05C214.033 231.939 212.895 231.063 211.464 231.063C210.033 231.063 208.895 231.939 208.895 233.05Z" fill="#ED1D24"/>
<path d="M203.405 236.556C203.405 237.666 204.544 238.543 205.975 238.543C207.405 238.543 208.544 237.666 208.544 236.556C208.544 235.446 207.405 234.569 205.975 234.569C204.544 234.569 203.405 235.446 203.405 236.556Z" fill="#ED1D24"/>
<path d="M199.668 242.107C201.087 242.107 202.237 241.218 202.237 240.12C202.237 239.023 201.087 238.134 199.668 238.134C198.249 238.134 197.099 239.023 197.099 240.12C197.099 241.218 198.249 242.107 199.668 242.107Z" fill="#ED1D24"/>
<path d="M224.661 251.545L214.676 257.359L214.734 264.197L224.661 258.441V251.545Z" fill="#ED1D24"/>
<path d="M259.201 297.126L282.413 283.657V267.528L258.909 281.728L259.201 297.126Z" fill="white"/>
<path d="M259.201 297.126L282.413 283.657V267.528L258.909 281.728L259.201 297.126Z" stroke="#ED1D24" stroke-linecap="round" stroke-linejoin="round"/>
<path d="M259.055 281.144L235.727 267.966V283.657L259.201 297.126L259.055 281.144Z" fill="white"/>
<path d="M259.055 281.144L235.727 267.966V283.657L259.201 297.126L259.055 281.144Z" stroke="#ED1D24" stroke-linecap="round" stroke-linejoin="round"/>
<path d="M282.414 267.528C281.976 267.674 259.493 254.35 259.493 254.35L235.697 267.966L259.055 281.144L282.414 267.528Z" fill="white"/>
<path d="M282.414 267.528C281.976 267.674 259.493 254.35 259.493 254.35L235.697 267.966L259.055 281.144L282.414 267.528Z" stroke="#ED1D24" stroke-linecap="round" stroke-linejoin="round"/>
<path d="M255.815 260.252C255.815 261.363 256.954 262.239 258.385 262.239C259.816 262.239 260.954 261.363 260.954 260.252C260.954 259.142 259.816 258.265 258.385 258.265C256.954 258.265 255.815 259.142 255.815 260.252Z" fill="#ED1D24"/>
<path d="M250.297 263.788C250.297 264.898 251.436 265.775 252.866 265.775C254.297 265.775 255.436 264.898 255.436 263.788C255.436 262.677 254.297 261.801 252.866 261.801C251.436 261.801 250.297 262.677 250.297 263.788Z" fill="#ED1D24"/>
<path d="M246.56 269.31C247.979 269.31 249.129 268.42 249.129 267.323C249.129 266.226 247.979 265.336 246.56 265.336C245.141 265.336 243.99 266.226 243.99 267.323C243.99 268.42 245.141 269.31 246.56 269.31Z" fill="#ED1D24"/>
<path d="M271.582 278.748L261.567 284.591L261.655 291.428L271.582 285.672V278.748Z" fill="#ED1D24"/>
<path d="M306.122 324.329L329.334 310.859V294.76L305.83 308.96L306.122 324.329Z" fill="white"/>
<path d="M306.122 324.329L329.334 310.859V294.76L305.83 308.96L306.122 324.329Z" stroke="#ED1D24" stroke-linecap="round" stroke-linejoin="round"/>
<path d="M305.976 308.346L282.618 295.198V310.859L306.122 324.329L305.976 308.346Z" fill="white"/>
<path d="M305.976 308.346L282.618 295.198V310.859L306.122 324.329L305.976 308.346Z" stroke="#ED1D24" stroke-linecap="round" stroke-linejoin="round"/>
<path d="M329.334 294.76C328.896 294.906 306.414 281.582 306.414 281.582L282.618 295.198L305.976 308.376L329.334 294.76Z" fill="white"/>
<path d="M329.334 294.76C328.896 294.906 306.414 281.582 306.414 281.582L282.618 295.198L305.976 308.376L329.334 294.76Z" stroke="#ED1D24" stroke-linecap="round" stroke-linejoin="round"/>
<path d="M302.707 287.484C302.707 288.594 303.846 289.471 305.276 289.471C306.707 289.471 307.846 288.594 307.846 287.484C307.846 286.374 306.707 285.497 305.276 285.497C303.846 285.497 302.707 286.374 302.707 287.484Z" fill="#ED1D24"/>
<path d="M297.218 290.991C297.218 292.101 298.356 292.977 299.787 292.977C301.218 292.977 302.357 292.101 302.357 290.991C302.357 289.88 301.218 289.004 299.787 289.004C298.356 289.004 297.218 289.88 297.218 290.991Z" fill="#ED1D24"/>
<path d="M293.481 296.542C294.9 296.542 296.05 295.652 296.05 294.555C296.05 293.458 294.9 292.568 293.481 292.568C292.061 292.568 290.911 293.458 290.911 294.555C290.911 295.652 292.061 296.542 293.481 296.542Z" fill="#ED1D24"/>
<path d="M318.474 305.979L308.488 311.794L308.547 318.631L318.474 312.875V305.979Z" fill="#ED1D24"/>
<path d="M366.97 346.681L468.929 286.403V376.601L366.62 436.12L366.97 346.681Z" fill="white"/>
<path d="M366.97 346.681L468.929 286.403V376.601L366.62 436.12L366.97 346.681Z" stroke="#ED1D24" stroke-linecap="round" stroke-linejoin="round"/>
<path d="M443.206 342.006V315.768L374.854 357.375L374.562 382.942L443.352 342.707" fill="#ED1D24"/>
<path d="M443.206 342.006V315.768L374.854 357.375L374.562 382.942L443.352 342.707" stroke="#ED1D24" stroke-linecap="round" stroke-linejoin="round"/>
<path d="M468.899 286.462L303.407 189.134L201.857 248.886L366.97 346.681L468.899 286.462Z" fill="white"/>
<path d="M468.899 286.462L303.407 189.134L201.857 248.886L366.97 346.681L468.899 286.462Z" stroke="#ED1D24" stroke-linecap="round" stroke-linejoin="round"/>
<path d="M426.505 279.624L403.205 292.773L286.531 224.839L310.065 211.223L426.505 279.624Z" fill="#ED1D24"/>
<path d="M380.664 306.915L357.364 320.034L240.69 252.13L264.224 238.484L380.664 306.915Z" fill="#ED1D24"/>
<path d="M201.623 248.886V338.646L366.415 436.12L366.736 346.681L201.623 248.886Z" fill="white"/>
<path d="M201.623 248.886V338.646L366.415 436.12L366.736 346.681L201.623 248.886Z" fill="white"/>
<path d="M201.623 248.886V338.646L366.415 436.12L366.736 346.681L201.623 248.886Z" stroke="#ED1D24" stroke-linecap="round" stroke-linejoin="round"/>
<path d="M356.137 422.329V387.909L341.655 379.319L341.597 413.767L356.137 422.329Z" fill="#ED1D24"/>
<path d="M356.137 383.847V349.428L341.655 340.867L341.597 375.286L356.137 383.847Z" fill="#ED1D24"/>
<path d="M200.311 392.175V364.738L224.077 351.502V296.425L293.655 337.682V392.35L269.713 405.791V433.022L200.311 392.175Z" fill="white"/>
<path d="M200.311 392.175V364.738L224.077 351.502V296.425L293.655 337.682V392.35L269.713 405.791V433.022L200.311 392.175Z" stroke="#ED1D24" stroke-linecap="round" stroke-linejoin="round"/>
<path d="M269.713 433.023L316.459 406.2V323.949L246.822 282.868L224.077 296.425L293.655 337.682V392.35L269.713 405.791V433.023Z" fill="white"/>
<path d="M269.713 433.023L316.459 406.2V323.949L246.822 282.868L224.077 296.425L293.655 337.682V392.35L269.713 405.791V433.023Z" stroke="#ED1D24" stroke-linecap="round" stroke-linejoin="round"/>
<path d="M200.311 364.739L269.713 405.791L293.655 392.35L224.077 351.502L200.311 364.739Z" stroke="#ED1D24" stroke-linecap="round" stroke-linejoin="round"/>
<path d="M293.655 337.682L316.459 323.949L246.822 282.868L224.077 296.425L293.655 337.682Z" fill="white"/>
<path d="M293.655 337.682L316.459 323.949L246.822 282.868L224.077 296.425L293.655 337.682Z" stroke="#ED1D24" stroke-linecap="round" stroke-linejoin="round"/>
<path d="M286.005 339.406V381.861L229.245 349.048V306.447L286.005 339.406Z" fill="#ED1D24"/>
<path d="M286.005 339.406V381.861L229.245 349.048V306.447L286.005 339.406Z" stroke="#ED1D24" stroke-linecap="round" stroke-linejoin="round"/>
<path d="M281.043 389.983L266.532 398.252L211.494 366.55L226.473 358.106L281.043 389.983Z" fill="#ED1D24"/>
<path d="M281.043 389.983L266.532 398.252L211.494 366.55L226.473 358.106L281.043 389.983Z" stroke="#ED1D24" stroke-linecap="round" stroke-linejoin="round"/>
<path d="M280.312 375.14V343.906L267.173 336.134L267.114 367.368L280.312 375.14Z" fill="white"/>
<path d="M262.881 362.752V331.517L249.742 323.774L249.684 354.979L262.881 362.752Z" fill="white"/>
<path d="M245.859 352.905V321.67L232.749 313.927L232.69 345.133L245.859 352.905Z" fill="white"/>
<path d="M280.312 375.14V343.905L267.173 336.133L267.114 367.368L280.312 375.14Z" fill="white"/>
<path d="M280.312 372.744V341.51L267.173 333.738L267.114 364.972L280.312 372.744Z" fill="white"/>
<path d="M578.275 523.367L578.158 554.602C578.158 561.351 587.443 566.815 598.859 566.815C610.276 566.815 619.269 561.351 619.269 554.602L619.385 552.644V523.279" fill="white"/>
<path d="M578.275 523.367L578.158 554.602C578.158 561.351 587.443 566.815 598.859 566.815C610.276 566.815 619.269 561.351 619.269 554.602L619.385 552.644V523.279" stroke="#ED1D24" stroke-linecap="round" stroke-linejoin="round"/>
<path d="M598.859 534.558C610.292 534.558 619.561 529.09 619.561 522.344C619.561 515.599 610.292 510.131 598.859 510.131C587.426 510.131 578.158 515.599 578.158 522.344C578.158 529.09 587.426 534.558 598.859 534.558Z" fill="#ED1D24"/>
<path d="M598.859 534.558C610.292 534.558 619.561 529.09 619.561 522.344C619.561 515.599 610.292 510.131 598.859 510.131C587.426 510.131 578.158 515.599 578.158 522.344C578.158 529.09 587.426 534.558 598.859 534.558Z" stroke="#ED1D24" stroke-linecap="round" stroke-linejoin="round"/>
<path d="M497.864 473.666L497.747 504.901C497.747 511.65 507.032 517.114 518.448 517.114C529.864 517.114 538.857 511.65 538.857 504.901L538.974 502.943V473.578" fill="white"/>
<path d="M497.864 473.666L497.747 504.901C497.747 511.65 507.032 517.114 518.448 517.114C529.864 517.114 538.857 511.65 538.857 504.901L538.974 502.943V473.578" stroke="#ED1D24" stroke-linecap="round" stroke-linejoin="round"/>
<path d="M518.448 484.857C529.881 484.857 539.149 479.388 539.149 472.643C539.149 465.898 529.881 460.43 518.448 460.43C507.015 460.43 497.747 465.898 497.747 472.643C497.747 479.388 507.015 484.857 518.448 484.857Z" fill="#ED1D24"/>
<path d="M518.448 484.857C529.881 484.857 539.149 479.388 539.149 472.643C539.149 465.898 529.881 460.43 518.448 460.43C507.015 460.43 497.747 465.898 497.747 472.643C497.747 479.388 507.015 484.857 518.448 484.857Z" stroke="#ED1D24" stroke-linecap="round" stroke-linejoin="round"/>
<path d="M417.454 426.332L417.337 457.566C417.337 464.316 426.622 469.78 438.038 469.78C449.454 469.78 458.447 464.316 458.447 457.566L458.564 455.609V426.244" fill="white"/>
<path d="M417.454 426.332L417.337 457.566C417.337 464.316 426.622 469.78 438.038 469.78C449.454 469.78 458.447 464.316 458.447 457.566L458.564 455.609V426.244" stroke="#ED1D24" stroke-linecap="round" stroke-linejoin="round"/>
<path d="M438.038 437.522C449.471 437.522 458.739 432.054 458.739 425.309C458.739 418.564 449.471 413.095 438.038 413.095C426.605 413.095 417.337 418.564 417.337 425.309C417.337 432.054 426.605 437.522 438.038 437.522Z" fill="#ED1D24"/>
<path d="M438.038 437.522C449.471 437.522 458.739 432.054 458.739 425.309C458.739 418.564 449.471 413.095 438.038 413.095C426.605 413.095 417.337 418.564 417.337 425.309C417.337 432.054 426.605 437.522 438.038 437.522Z" stroke="#ED1D24" stroke-linecap="round" stroke-linejoin="round"/>
<path d="M722.423 506.391L443.352 342.708L374.357 382.942L653.049 547.414L722.423 506.391Z" fill="white"/>
<path d="M722.423 506.391L443.352 342.708L374.357 382.942L653.049 547.414L722.423 506.391Z" stroke="#ED1D24" stroke-linecap="round" stroke-linejoin="round"/>
<path d="M653.05 547.414V575.025L374.271 410.845L374.358 382.942L653.05 547.414Z" fill="white"/>
<path d="M653.05 547.414V575.025L374.271 410.845L374.358 382.942L653.05 547.414Z" stroke="#ED1D24" stroke-linecap="round" stroke-linejoin="round"/>
<path d="M722.423 506.391V533.33L653.05 575.025V547.414L722.423 506.391Z" fill="white"/>
<path d="M722.423 506.391V533.33L653.05 575.025V547.414L722.423 506.391Z" stroke="#ED1D24" stroke-linecap="round" stroke-linejoin="round"/>
<path d="M648.729 533.564L389.804 384.373" stroke="white" stroke-linecap="round" stroke-linejoin="round"/>
<path d="M701.431 503.001L442.477 353.84" stroke="white" stroke-linecap="round" stroke-linejoin="round"/>
<path d="M597.019 534.294C597.72 540.927 603.326 546.333 609.516 546.333C615.706 546.333 620.144 540.956 619.443 534.294C618.742 527.662 613.136 522.256 606.946 522.256C600.756 522.256 596.318 527.633 597.019 534.294Z" fill="white"/>
<path d="M531.85 496.135C532.551 502.767 538.157 508.173 544.347 508.173C550.537 508.173 554.975 502.797 554.274 496.135C553.573 489.502 547.967 484.097 541.777 484.097C535.587 484.097 531.149 489.473 531.85 496.135Z" fill="white"/>
<path d="M466.652 457.975C467.353 464.608 472.959 470.013 479.148 470.013C485.338 470.013 489.776 464.637 489.076 457.975C488.375 451.313 482.769 445.937 476.579 445.937C470.389 445.937 465.951 451.313 466.652 457.975Z" fill="white"/>
<path d="M401.454 419.816C402.154 426.448 407.76 431.854 413.95 431.854C420.14 431.854 424.578 426.478 423.877 419.816C423.177 413.183 417.571 407.778 411.381 407.778C405.191 407.778 400.753 413.154 401.454 419.816Z" fill="white"/>
<path d="M597.019 534.294C597.72 540.927 603.326 546.333 609.516 546.333C615.706 546.333 620.144 540.956 619.443 534.294C618.742 527.662 613.136 522.256 606.946 522.256C600.756 522.256 596.318 527.633 597.019 534.294Z" stroke="#ED1D24" stroke-linecap="round" stroke-linejoin="round"/>
<path d="M531.85 496.135C532.551 502.767 538.157 508.173 544.347 508.173C550.537 508.173 554.975 502.797 554.274 496.135C553.573 489.502 547.967 484.097 541.777 484.097C535.587 484.097 531.149 489.473 531.85 496.135Z" stroke="#ED1D24" stroke-linecap="round" stroke-linejoin="round"/>
<path d="M466.652 457.975C467.353 464.608 472.959 470.013 479.148 470.013C485.338 470.013 489.776 464.637 489.076 457.975C488.375 451.313 482.769 445.937 476.579 445.937C470.389 445.937 465.951 451.313 466.652 457.975Z" stroke="#ED1D24" stroke-linecap="round" stroke-linejoin="round"/>
<path d="M401.454 419.816C402.154 426.448 407.76 431.854 413.95 431.854C420.14 431.854 424.578 426.478 423.877 419.816C423.177 413.183 417.571 407.778 411.381 407.778C405.191 407.778 400.753 413.154 401.454 419.816Z" stroke="#ED1D24" stroke-linecap="round" stroke-linejoin="round"/>
<path d="M447.82 404.797L471.032 391.327V375.228L447.528 389.428L447.82 404.797Z" fill="white"/>
<path d="M447.82 404.797L471.032 391.327V375.228L447.528 389.428L447.82 404.797Z" stroke="#ED1D24" stroke-linecap="round" stroke-linejoin="round"/>
<path d="M447.675 388.815L424.316 375.666V391.327L447.821 404.797L447.675 388.815Z" fill="white"/>
<path d="M447.675 388.815L424.316 375.666V391.327L447.821 404.797L447.675 388.815Z" stroke="#ED1D24" stroke-linecap="round" stroke-linejoin="round"/>
<path d="M471.033 375.228C470.595 375.374 448.113 362.05 448.113 362.05L424.316 375.666L447.675 388.844L471.033 375.228Z" fill="white"/>
<path d="M471.033 375.228C470.595 375.374 448.113 362.05 448.113 362.05L424.316 375.666L447.675 388.844L471.033 375.228Z" stroke="#ED1D24" stroke-linecap="round" stroke-linejoin="round"/>
<path d="M465.602 375.871L448.609 385.834L442.915 382.562L459.966 372.423L465.602 375.871Z" fill="#ED1D24"/>
<path d="M458.594 371.809L441.601 381.744L435.907 378.5L452.959 368.362L458.594 371.809Z" fill="#ED1D24"/>
<path d="M444.403 367.952C444.403 369.063 445.542 369.939 446.973 369.939C448.403 369.939 449.542 369.063 449.542 367.952C449.542 366.842 448.403 365.966 446.973 365.966C445.542 365.966 444.403 366.842 444.403 367.952Z" fill="#ED1D24"/>
<path d="M438.914 371.459C438.914 372.569 440.053 373.446 441.483 373.446C442.914 373.446 444.053 372.569 444.053 371.459C444.053 370.348 442.914 369.472 441.483 369.472C440.053 369.472 438.914 370.348 438.914 371.459Z" fill="#ED1D24"/>
<path d="M435.177 377.01C436.596 377.01 437.746 376.121 437.746 375.023C437.746 373.926 436.596 373.036 435.177 373.036C433.758 373.036 432.607 373.926 432.607 375.023C432.607 376.121 433.758 377.01 435.177 377.01Z" fill="#ED1D24"/>
<path d="M460.199 386.448L450.185 392.262L450.243 399.1L460.199 393.344V386.448Z" fill="#ED1D24"/>
<path d="M494.741 432.029L517.953 418.559V402.431L494.449 416.631L494.741 432.029Z" fill="white"/>
<path d="M494.741 432.029L517.953 418.559V402.431L494.449 416.631L494.741 432.029Z" stroke="#ED1D24" stroke-linecap="round" stroke-linejoin="round"/>
<path d="M494.595 416.047L471.237 402.869V418.559L494.741 432.029L494.595 416.047Z" fill="white"/>
<path d="M494.595 416.047L471.237 402.869V418.559L494.741 432.029L494.595 416.047Z" stroke="#ED1D24" stroke-linecap="round" stroke-linejoin="round"/>
<path d="M517.954 402.431C517.516 402.577 495.033 389.253 495.033 389.253L471.237 402.869L494.595 416.046L517.954 402.431Z" fill="white"/>
<path d="M517.954 402.431C517.516 402.577 495.033 389.253 495.033 389.253L471.237 402.869L494.595 416.046L517.954 402.431Z" stroke="#ED1D24" stroke-linecap="round" stroke-linejoin="round"/>
<path d="M512.522 403.073L495.529 413.037L489.807 409.794L506.887 399.655L512.522 403.073Z" fill="#ED1D24"/>
<path d="M505.485 399.012L488.492 408.976L482.799 405.703L499.879 395.564L505.485 399.012Z" fill="#ED1D24"/>
<path d="M491.325 395.155C491.325 396.265 492.464 397.142 493.895 397.142C495.325 397.142 496.464 396.265 496.464 395.155C496.464 394.045 495.325 393.168 493.895 393.168C492.464 393.168 491.325 394.045 491.325 395.155Z" fill="#ED1D24"/>
<path d="M485.807 398.691C485.807 399.801 486.945 400.677 488.376 400.677C489.807 400.677 490.945 399.801 490.945 398.691C490.945 397.58 489.807 396.704 488.376 396.704C486.945 396.704 485.807 397.58 485.807 398.691Z" fill="#ED1D24"/>
<path d="M482.099 404.213C483.518 404.213 484.668 403.323 484.668 402.226C484.668 401.129 483.518 400.239 482.099 400.239C480.68 400.239 479.529 401.129 479.529 402.226C479.529 403.323 480.68 404.213 482.099 404.213Z" fill="#ED1D24"/>
<path d="M507.092 413.65L497.106 419.494L497.165 426.331L507.092 420.575V413.65Z" fill="#ED1D24"/>
<path d="M541.631 459.232L564.843 445.762V429.662L541.339 443.863L541.631 459.232Z" fill="white"/>
<path d="M541.631 459.232L564.843 445.762V429.662L541.339 443.863L541.631 459.232Z" stroke="#ED1D24" stroke-linecap="round" stroke-linejoin="round"/>
<path d="M541.485 443.249L518.127 430.101V445.762L541.631 459.232L541.485 443.249Z" fill="white"/>
<path d="M541.485 443.249L518.127 430.101V445.762L541.631 459.232L541.485 443.249Z" stroke="#ED1D24" stroke-linecap="round" stroke-linejoin="round"/>
<path d="M564.843 429.662C564.405 429.809 541.923 416.485 541.923 416.485L518.127 430.101L541.485 443.278L564.843 429.662Z" fill="white"/>
<path d="M564.843 429.662C564.405 429.809 541.923 416.485 541.923 416.485L518.127 430.101L541.485 443.278L564.843 429.662Z" stroke="#ED1D24" stroke-linecap="round" stroke-linejoin="round"/>
<path d="M559.414 430.305L542.421 440.269L536.728 436.996L553.779 426.857L559.414 430.305Z" fill="#ED1D24"/>
<path d="M552.406 426.244L535.413 436.178L529.72 432.935L546.771 422.796L552.406 426.244Z" fill="#ED1D24"/>
<path d="M538.216 422.387C538.216 423.497 539.354 424.374 540.785 424.374C542.216 424.374 543.355 423.497 543.355 422.387C543.355 421.277 542.216 420.4 540.785 420.4C539.354 420.4 538.216 421.277 538.216 422.387Z" fill="#ED1D24"/>
<path d="M532.727 425.893C532.727 427.004 533.865 427.88 535.296 427.88C536.727 427.88 537.865 427.004 537.865 425.893C537.865 424.783 536.727 423.906 535.296 423.906C533.865 423.906 532.727 424.783 532.727 425.893Z" fill="#ED1D24"/>
<path d="M528.989 431.445C530.408 431.445 531.559 430.555 531.559 429.458C531.559 428.361 530.408 427.471 528.989 427.471C527.57 427.471 526.42 428.361 526.42 429.458C526.42 430.555 527.57 431.445 528.989 431.445Z" fill="#ED1D24"/>
<path d="M554.012 440.882L543.997 446.697L544.055 453.534L554.012 447.778V440.882Z" fill="#ED1D24"/>
<path d="M588.553 486.464L611.765 472.994V456.865L588.261 471.065L588.553 486.464Z" fill="white"/>
<path d="M588.553 486.464L611.765 472.994V456.865L588.261 471.065L588.553 486.464Z" stroke="#ED1D24" stroke-linecap="round" stroke-linejoin="round"/>
<path d="M588.407 470.481L565.049 457.303V472.994L588.553 486.463L588.407 470.481Z" fill="white"/>
<path d="M588.407 470.481L565.049 457.303V472.994L588.553 486.463L588.407 470.481Z" stroke="#ED1D24" stroke-linecap="round" stroke-linejoin="round"/>
<path d="M611.765 456.865C611.327 457.011 588.845 443.687 588.845 443.687L565.049 457.303L588.407 470.481L611.765 456.865Z" fill="white"/>
<path d="M611.765 456.865C611.327 457.011 588.845 443.687 588.845 443.687L565.049 457.303L588.407 470.481L611.765 456.865Z" stroke="#ED1D24" stroke-linecap="round" stroke-linejoin="round"/>
<path d="M606.334 457.508L589.341 467.471L583.618 464.228L600.699 454.089L606.334 457.508Z" fill="#ED1D24"/>
<path d="M599.297 453.446L582.304 463.41L576.61 460.137L593.691 449.999L599.297 453.446Z" fill="#ED1D24"/>
<path d="M585.138 449.589C585.138 450.7 586.276 451.576 587.707 451.576C589.138 451.576 590.276 450.7 590.276 449.589C590.276 448.479 589.138 447.603 587.707 447.603C586.276 447.603 585.138 448.479 585.138 449.589Z" fill="#ED1D24"/>
<path d="M579.619 453.125C579.619 454.235 580.758 455.112 582.189 455.112C583.619 455.112 584.758 454.235 584.758 453.125C584.758 452.014 583.619 451.138 582.189 451.138C580.758 451.138 579.619 452.014 579.619 453.125Z" fill="#ED1D24"/>
<path d="M575.91 458.647C577.329 458.647 578.48 457.758 578.48 456.66C578.48 455.563 577.329 454.673 575.91 454.673C574.491 454.673 573.341 455.563 573.341 456.66C573.341 457.758 574.491 458.647 575.91 458.647Z" fill="#ED1D24"/>
<path d="M600.904 468.085L590.918 473.928L590.976 480.766L600.904 475.01V468.085Z" fill="#ED1D24"/>
<path d="M740 359.742L107.925 -13.6233" stroke="#ED1D24" stroke-linecap="round" stroke-linejoin="round"/>
<path d="M672.405 435.331V468.494L651.675 480.941V447.749L672.405 435.331Z" fill="white"/>
<path d="M672.405 435.331V468.494L651.675 480.941V447.749L672.405 435.331Z" stroke="#ED1D24" stroke-linecap="round" stroke-linejoin="round"/>
<path d="M679.472 438.779V471.942L658.741 484.389V451.226L679.472 438.779Z" fill="white"/>
<path d="M679.472 438.779V471.942L658.741 484.389V451.226L679.472 438.779Z" stroke="#ED1D24" stroke-linecap="round" stroke-linejoin="round"/>
<path d="M658.741 451.226L651.675 447.778V480.941C651.675 480.941 658.916 484.915 658.741 484.389C658.565 483.863 658.741 451.226 658.741 451.226Z" fill="white"/>
<path d="M658.741 451.226L651.675 447.778V480.941C651.675 480.941 658.916 484.915 658.741 484.389C658.565 483.863 658.741 451.226 658.741 451.226Z" stroke="#ED1D24" stroke-linecap="round" stroke-linejoin="round"/>
<path d="M679.471 438.779L672.405 435.331L651.675 447.749L658.741 451.226L679.471 438.779Z" fill="white"/>
<path d="M679.471 438.779L672.405 435.331L651.675 447.749L658.741 451.226L679.471 438.779Z" stroke="#ED1D24" stroke-linecap="round" stroke-linejoin="round"/>
<path d="M672.608 505.982L695.791 492.512V476.383L672.287 490.583L672.608 505.982Z" fill="white"/>
<path d="M672.608 505.982L695.791 492.512V476.383L672.287 490.583L672.608 505.982Z" stroke="#ED1D24" stroke-linecap="round" stroke-linejoin="round"/>
<path d="M672.463 489.999L649.104 476.851V492.512L672.609 505.982L672.463 489.999Z" fill="white"/>
<path d="M672.463 489.999L649.104 476.851V492.512L672.609 505.982L672.463 489.999Z" stroke="#ED1D24" stroke-linecap="round" stroke-linejoin="round"/>
<path d="M695.791 476.383C695.353 476.529 672.871 463.206 672.871 463.206L649.075 476.821L672.433 489.999L695.791 476.383Z" fill="white"/>
<path d="M695.791 476.383C695.353 476.529 672.871 463.206 672.871 463.206L649.075 476.821L672.433 489.999L695.791 476.383Z" stroke="#ED1D24" stroke-linecap="round" stroke-linejoin="round"/>
<path d="M690.361 477.055L673.368 486.989L667.675 483.746L684.755 473.607L690.361 477.055Z" fill="#ED1D24"/>
<path d="M683.354 472.964L666.361 482.928L660.667 479.656L677.748 469.546L683.354 472.964Z" fill="#ED1D24"/>
<path d="M669.192 469.108C669.192 470.218 670.331 471.095 671.762 471.095C673.192 471.095 674.331 470.218 674.331 469.108C674.331 467.997 673.192 467.121 671.762 467.121C670.331 467.121 669.192 467.997 669.192 469.108Z" fill="#ED1D24"/>
<path d="M663.674 472.643C663.674 473.753 664.813 474.63 666.243 474.63C667.674 474.63 668.813 473.753 668.813 472.643C668.813 471.533 667.674 470.656 666.243 470.656C664.813 470.656 663.674 471.533 663.674 472.643Z" fill="#ED1D24"/>
<path d="M659.966 478.195C661.385 478.195 662.535 477.305 662.535 476.208C662.535 475.111 661.385 474.221 659.966 474.221C658.547 474.221 657.396 475.111 657.396 476.208C657.396 477.305 658.547 478.195 659.966 478.195Z" fill="#ED1D24"/>
<path d="M684.959 487.632L674.974 493.447L675.032 500.284L684.959 494.528V487.632Z" fill="#ED1D24"/>
<path d="M699.588 448.333V481.496L678.887 493.943V460.78L699.588 448.333Z" fill="white"/>
<path d="M699.588 448.333V481.496L678.887 493.943V460.78L699.588 448.333Z" stroke="#ED1D24" stroke-linecap="round" stroke-linejoin="round"/>
<path d="M706.654 451.781V484.973L685.953 497.391V464.228L706.654 451.781Z" fill="white"/>
<path d="M706.654 451.781V484.973L685.953 497.391V464.228L706.654 451.781Z" stroke="#ED1D24" stroke-linecap="round" stroke-linejoin="round"/>
<path d="M685.953 464.228L678.887 460.78V493.943C678.887 493.943 686.128 497.917 685.953 497.391C685.777 496.865 685.953 464.228 685.953 464.228Z" fill="white"/>
<path d="M685.953 464.228L678.887 460.78V493.943C678.887 493.943 686.128 497.917 685.953 497.391C685.777 496.865 685.953 464.228 685.953 464.228Z" stroke="#ED1D24" stroke-linecap="round" stroke-linejoin="round"/>
<path d="M706.654 451.781L699.588 448.333L678.887 460.78L685.953 464.228L706.654 451.781Z" fill="white"/>
<path d="M706.654 451.781L699.588 448.333L678.887 460.78L685.953 464.228L706.654 451.781Z" stroke="#ED1D24" stroke-linecap="round" stroke-linejoin="round"/>
<path d="M652.608 431.416L652.433 450.729C652.433 459.612 664.637 466.799 679.674 466.799C694.711 466.799 706.536 459.612 706.536 450.729L706.682 448.158V431.328" fill="white"/>
<path d="M652.608 431.416L652.433 450.729C652.433 459.612 664.637 466.799 679.674 466.799C694.711 466.799 706.536 459.612 706.536 450.729L706.682 448.158V431.328" stroke="#ED1D24" stroke-linecap="round" stroke-linejoin="round"/>
<path d="M679.674 446.171C694.719 446.171 706.915 438.976 706.915 430.101C706.915 421.225 694.719 414.031 679.674 414.031C664.629 414.031 652.433 421.225 652.433 430.101C652.433 438.976 664.629 446.171 679.674 446.171Z" stroke="#ED1D24" stroke-linecap="round" stroke-linejoin="round"/>
<path d="M679.674 446.171C694.719 446.171 706.915 438.976 706.915 430.101C706.915 421.225 694.719 414.031 679.674 414.031C664.629 414.031 652.433 421.225 652.433 430.101C652.433 438.976 664.629 446.171 679.674 446.171Z" fill="#ED1D24"/>
<path d="M661.25 430.101C661.25 436.412 669.513 441.525 679.674 441.525C689.834 441.525 698.097 436.412 698.097 430.101C698.097 423.789 689.834 418.647 679.674 418.647C669.513 418.647 661.25 423.76 661.25 430.101Z" fill="white"/>
<path d="M660.899 423.205L698.448 436.996" stroke="#ED1D24" stroke-linecap="round" stroke-linejoin="round"/>
<path d="M698.448 423.205L660.899 436.996" stroke="#ED1D24" stroke-linecap="round" stroke-linejoin="round"/>
<path d="M679.851 428.231V332.948" stroke="#ED1D24" stroke-linecap="round" stroke-linejoin="round"/>
<path d="M679.588 412.803C679.588 412.803 671.384 381.189 671.209 380.604C671.034 380.02 671.209 352.876 671.209 352.876L679.997 334.322" stroke="#ED1D24" stroke-linecap="round" stroke-linejoin="round"/>
<path d="M695.328 329.238V341.071L671.678 355.272V343.438L695.328 329.238Z" fill="white"/>
<path d="M695.328 329.238V341.071L671.678 355.272V343.438L695.328 329.238Z" stroke="#ED1D24" stroke-linecap="round" stroke-linejoin="round"/>
<path d="M648.611 328.946V340.779L671.677 355.272V343.438L648.611 328.946Z" fill="white"/>
<path d="M648.611 328.946V340.779L671.677 355.272V343.438L648.611 328.946Z" stroke="#ED1D24" stroke-linecap="round" stroke-linejoin="round"/>
<path d="M671.677 343.438L648.611 328.946L672.261 315.33L695.328 329.238L671.677 343.438Z" fill="white"/>
<path d="M671.677 343.438L648.611 328.946L672.261 315.33L695.328 329.238L671.677 343.438Z" stroke="#ED1D24" stroke-linecap="round" stroke-linejoin="round"/>
<path d="M189.04 149.543V182.706L168.339 195.153V161.99L189.04 149.543Z" fill="white"/>
<path d="M189.04 149.543V182.706L168.339 195.153V161.99L189.04 149.543Z" stroke="#ED1D24" stroke-linecap="round" stroke-linejoin="round"/>
<path d="M196.135 152.99V186.154L175.404 198.601V165.438L196.135 152.99Z" fill="white"/>
<path d="M196.135 152.99V186.154L175.404 198.601V165.438L196.135 152.99Z" stroke="#ED1D24" stroke-linecap="round" stroke-linejoin="round"/>
<path d="M175.405 165.438L168.339 161.99V195.153C168.339 195.153 175.58 199.127 175.405 198.601C175.23 198.075 175.405 165.438 175.405 165.438Z" fill="white"/>
<path d="M175.405 165.438L168.339 161.99V195.153C168.339 195.153 175.58 199.127 175.405 198.601C175.23 198.075 175.405 165.438 175.405 165.438Z" stroke="#ED1D24" stroke-linecap="round" stroke-linejoin="round"/>
<path d="M196.135 152.991L189.04 149.543L168.339 161.99L175.405 165.438L196.135 152.991Z" fill="white"/>
<path d="M196.135 152.991L189.04 149.543L168.339 161.99L175.405 165.438L196.135 152.991Z" stroke="#ED1D24" stroke-linecap="round" stroke-linejoin="round"/>
<path d="M205.595 159.01V192.173L184.894 204.62V171.457L205.595 159.01Z" fill="white"/>
<path d="M205.595 159.01V192.173L184.894 204.62V171.457L205.595 159.01Z" stroke="#ED1D24" stroke-linecap="round" stroke-linejoin="round"/>
<path d="M212.69 162.457V195.621L191.959 208.068V174.904L212.69 162.457Z" fill="white"/>
<path d="M212.69 162.457V195.621L191.959 208.068V174.904L212.69 162.457Z" stroke="#ED1D24" stroke-linecap="round" stroke-linejoin="round"/>
<path d="M191.959 174.905L184.894 171.457V204.62C184.894 204.62 192.135 208.594 191.959 208.068C191.784 207.542 191.959 174.905 191.959 174.905Z" fill="white"/>
<path d="M191.959 174.905L184.894 171.457V204.62C184.894 204.62 192.135 208.594 191.959 208.068C191.784 207.542 191.959 174.905 191.959 174.905Z" stroke="#ED1D24" stroke-linecap="round" stroke-linejoin="round"/>
<path d="M212.69 162.457L205.595 159.01L184.894 171.457L191.959 174.904L212.69 162.457Z" fill="white"/>
<path d="M212.69 162.457L205.595 159.01L184.894 171.457L191.959 174.904L212.69 162.457Z" stroke="#ED1D24" stroke-linecap="round" stroke-linejoin="round"/>
<path d="M164.134 144.459L163.959 163.772C163.959 172.655 176.164 179.842 191.2 179.842C206.237 179.842 218.062 172.655 218.062 163.772L218.208 161.201V144.371" fill="white"/>
<path d="M164.134 144.459L163.959 163.772C163.959 172.655 176.164 179.842 191.2 179.842C206.237 179.842 218.062 172.655 218.062 163.772L218.208 161.201V144.371" stroke="#ED1D24" stroke-linecap="round" stroke-linejoin="round"/>
<path d="M191.2 159.214C206.245 159.214 218.442 152.019 218.442 143.144C218.442 134.268 206.245 127.073 191.2 127.073C176.155 127.073 163.959 134.268 163.959 143.144C163.959 152.019 176.155 159.214 191.2 159.214Z" stroke="#ED1D24" stroke-linecap="round" stroke-linejoin="round"/>
<path d="M191.2 159.214C206.245 159.214 218.442 152.019 218.442 143.144C218.442 134.268 206.245 127.073 191.2 127.073C176.155 127.073 163.959 134.268 163.959 143.144C163.959 152.019 176.155 159.214 191.2 159.214Z" fill="#ED1D24"/>
<path d="M172.776 143.144C172.776 149.455 181.039 154.597 191.2 154.597C201.361 154.597 209.624 149.484 209.624 143.144C209.624 136.803 201.361 131.719 191.2 131.719C181.039 131.719 172.776 136.833 172.776 143.144Z" fill="white"/>
<path d="M172.426 136.219L209.974 150.039" stroke="#ED1D24" stroke-linecap="round" stroke-linejoin="round"/>
<path d="M209.974 136.219L172.426 150.039" stroke="#ED1D24" stroke-linecap="round" stroke-linejoin="round"/>
<path d="M191.405 141.274V45.9917" stroke="#ED1D24" stroke-linecap="round" stroke-linejoin="round"/>
<path d="M191.113 125.817C191.113 125.817 182.908 94.2027 182.733 93.6183C182.558 93.034 182.733 65.8898 182.733 65.8898L191.522 47.3359" stroke="#ED1D24" stroke-linecap="round" stroke-linejoin="round"/>
<path d="M206.851 42.281V54.1146L183.201 68.3149V56.4813L206.851 42.281Z" fill="white"/>
<path d="M206.851 42.281V54.1146L183.201 68.3149V56.4813L206.851 42.281Z" stroke="#ED1D24" stroke-linecap="round" stroke-linejoin="round"/>
<path d="M160.134 41.9888V53.8223L183.2 68.3148V56.4812L160.134 41.9888Z" fill="white"/>
<path d="M160.134 41.9888V53.8223L183.2 68.3148V56.4812L160.134 41.9888Z" stroke="#ED1D24" stroke-linecap="round" stroke-linejoin="round"/>
<path d="M183.2 56.4812L160.134 41.9887L183.784 28.3728L206.851 42.2809L183.2 56.4812Z" fill="white"/>
<path d="M183.2 56.4812L160.134 41.9887L183.784 28.3728L206.851 42.2809L183.2 56.4812Z" stroke="#ED1D24" stroke-linecap="round" stroke-linejoin="round"/>
</g>
<defs>
<clipPath id="clip0_338_374">
<rect width="744" height="580" fill="white"/>
</clipPath>
</defs>
</svg>
