<svg width="1200" height="760" viewBox="0 0 1200 760" fill="none" xmlns="http://www.w3.org/2000/svg">
<g clip-path="url(#clip0_338_350)">
<path d="M791.887 398.95L807.489 412.661" stroke="#ED1D24"/>
<path d="M727.587 454.74L760.683 483.107" stroke="#ED1D24"/>
<path d="M593.315 607.924C593.315 615.016 594.261 629.2 598.043 629.2C601.825 629.2 621.998 605.245 631.611 593.268L640.594 602.251H643.904L659.033 586.648H662.815L670.853 590.904V593.268V595.159" stroke="#ED1D24"/>
<path d="M573.458 638.183L598.988 629.2" stroke="#ED1D24"/>
<path d="M600.879 632.982L633.975 623.053L638.703 626.363L623.573 648.584" stroke="#ED1D24"/>
<path d="M228.793 542.206L214.137 533.223C211.773 508.165 200.142 458.617 172.531 460.886C144.92 452.565 126.67 443.235 120.997 439.61L90.7382 389.022L78.9185 369.637" stroke="#ED1D24"/>
<path d="M147.473 696.336C127.301 685.619 80.3371 653.69 53.8608 611.706" stroke="#ED1D24"/>
<path d="M-2.5 265L49.1328 233.947L61.4254 217.872C67.7293 208.574 87.0506 189.126 113.905 185.722C147.473 181.467 170.167 185.722 177.732 185.722C185.297 185.722 232.103 201.797 238.722 206.525C244.017 210.307 259.525 226.382 266.617 233.947H277.018C282.376 235.995 293.471 242.173 294.984 250.494C296.497 258.815 302.233 250.179 304.913 244.821L322.879 239.147L335.171 250.494L370.63 307.702V324.722L354.083 342.688V351.672H361.175C362.593 366.643 359.378 401.125 335.171 419.281C310.964 437.436 309.956 430.628 312.477 424.954L322.879 435.355V447.648L312.477 466.087L244.395 481.216L229.266 542.206L277.018 604.142L322.879 667.023C338.166 666.708 371.765 664.943 383.869 660.404C402.024 655.865 435.876 638.971 450.532 631.091L471.808 623.526L492.611 597.523L504.903 590.904L516.25 604.142L527.124 597.523L551.709 582.393L564.947 567.264L579.604 556.39L611.754 542.206H624.046L630.193 531.805H634.92H642.485L648.159 542.206" stroke="#ED1D24"/>
<path d="M127.143 185.722L109.177 196.123L96.8848 215.981L68.9901 265.624L61.4255 285.481L53.8608 293.518V304.865L68.9901 345.525L109.177 374.365H188.133L221.702 361.127C236.988 345.052 269.453 307.418 277.018 285.481C284.583 263.543 272.605 242.614 265.671 234.892" stroke="#ED1D24"/>
<path d="M294.984 255.222C302.706 274.607 299.239 327.086 223.593 381.93C204.208 415.498 231.157 429.682 263.78 432.519L311.531 424.954L327.606 415.498C335.486 401.945 351.624 370.205 353.137 351.671" stroke="#ED1D24"/>
<path d="M260.47 432.991L215.555 441.029V446.702L213.191 450.958V460.413V465.141L215.555 476.961H221.702L226.43 481.216H247.705" stroke="#ED1D24"/>
<path d="M298.293 263.26L354.556 345.052" stroke="#ED1D24"/>
<path d="M297.348 259.005C300.972 257.586 309.262 256.262 313.423 262.314C317.583 268.366 337.22 301.398 346.518 317.158C348.409 320.783 351.057 329.261 346.518 334.178" stroke="#ED1D24"/>
<path d="M304.44 249.076C309.325 245.924 321.177 243.024 329.498 256.64C337.819 270.257 353.768 300.452 360.702 313.848C362.593 317.315 365.241 325.29 360.702 329.45C356.163 333.611 351.877 337.803 350.301 339.379" stroke="#ED1D24"/>
<path d="M572.985 641.019V634.873L581.968 621.162L683.618 502.019L772.503 405.569H780.067L785.268 400.369H791.414L798.979 394.223L806.543 390.44L812.69 394.223V400.369V405.569L806.543 414.08V430.155L767.302 476.488L690.71 572.937L614.59 663.24L607.971 666.077L599.934 663.24L572.985 641.019ZM572.985 641.019L554.073 648.584L549.345 655.203V666.077L451.478 721.866L401.362 741.251L357.865 750.707H314.841L147 694.917L-11.5 750.707" stroke="#ED1D24"/>
<path d="M509.158 59.4867L420.273 129.46L392.852 237.256M509.158 59.4867H522.869L485.046 205.579M509.158 59.4867L472.28 198.96M392.852 237.256L547.454 289.263L668.961 261.368M392.852 237.256L472.28 198.96M668.961 261.368L714.349 274.134L969.656 261.368L697.802 185.249M668.961 261.368L522.869 217.052M485.046 205.579L472.28 198.96M485.046 205.579L503.012 211.029M697.802 185.249L754.536 -45H726.169M697.802 185.249H668.961M503.012 211.029L547.454 51.9221L714.349 -45H726.169M503.012 211.029L522.869 217.052M522.869 217.052L668.961 185.249M668.961 185.249L726.169 -45M789.523 -45L732.315 136.552L1023.55 250.967" stroke="#ED1D24"/>
<path d="M730.424 137.97L1194 -1" stroke="#ED1D24"/>
<line x1="813.662" y1="388.632" x2="912.662" y2="297.632" stroke="#ED1D24" stroke-dasharray="2 2"/>
<line x1="812.613" y1="388.683" x2="894.613" y2="288.683" stroke="#ED1D24" stroke-dasharray="2 2"/>
<line x1="812.559" y1="388.764" x2="872.559" y2="276.764" stroke="#ED1D24" stroke-dasharray="2 2"/>
</g>
<defs>
<clipPath id="clip0_338_350">
<rect width="1200" height="760" fill="white"/>
</clipPath>
</defs>
</svg>
