<svg width="905" height="610" viewBox="0 0 905 610" fill="none" xmlns="http://www.w3.org/2000/svg">
<g clip-path="url(#clip0_338_285)">
<path d="M901.5 306V242" stroke="#ED1D24"/>
<path d="M903 403.5V386.5" stroke="#ED1D24"/>
<path d="M570 474.5H577.5V470.5H580.5V460H586L593 452.5L598.5 450V443H601.5V439.5H605.5L608 436.5V432H612.5L614.5 428.5L616 365.5H625V351H617.5V332H602V317.5" stroke="#ED1D24"/>
<path d="M570 474.5V470H567.5V459.5L549 446V440L543.5 437.5V348.5H546.5V337.5H556V221" stroke="#ED1D24"/>
<path d="M561 205V316.5H607.5V205L599.5 201V166H570.5" stroke="#ED1D24"/>
<path d="M567.5 173.5V205.5H561" stroke="#ED1D24"/>
<path d="M584.5 204C584.5 183.6 563.167 168.833 552.5 164V163.999C552.5 162 552.5 161.5 554 160.5C578.4 164.1 589.5 191 592 204H584.5Z" stroke="#ED1D24"/>
<path d="M585 206.5L584.333 207.5M584.333 207.5L581 212.5V248C583.667 251 590.8 255.2 598 248C598.5 236.5 598 218.5 597 207.5L592.5 204H585L584.333 207.5Z" stroke="#ED1D24"/>
<path d="M552.5 442V398.5H601.5V442H552.5Z" stroke="#ED1D24"/>
<path d="M547.5 349V366L552 370V384H605.5V367" stroke="#ED1D24"/>
<path d="M607.5 366.5V336.5H556.5" stroke="#ED1D24"/>
<path d="M601.5 348.5H557V367H601.5V348.5Z" stroke="#ED1D24"/>
<path d="M-121.5 416H490.5L494 420H540V337L551 335V220.5H556V202.5H565.5V195H556V181.5H524V164.5V160H605V6H525V26.5H450V28V40H452.5V45.5H397.5V162L406.5 171.5H454.5V174.5H449.5V244H-122" stroke="#ED1D24"/>
<path d="M-121.5 304.5H494.5L481 318V387H-121.5" stroke="#ED1D24"/>
<path d="M605.5 25.5H683.5V39L680.5 42V45.5H733.5V171.5H718.5V242H901" stroke="#ED1D24"/>
<path d="M903 403.5H894V419H882.5V423.5H868V419H618V386.5H903" stroke="#ED1D24"/>
<path d="M609 307.5H617.5V333H634V307.5H643L644 320L652 324.5L669 322.5L668 305.5H901V306.5" stroke="#ED1D24"/>
<path d="M-121.5 482L-90 464.5L763 470.5L900 587M900 587V606L-121.5 598.5V582L900 587Z" stroke="#ED1D24"/>
<rect x="568" y="468" width="12" height="2" fill="white"/>
<path d="M574 477.5V499.5" stroke="#ED1D24"/>
<path d="M580 496L576 500" stroke="#ED1D24"/>
<path d="M568 496L572 500" stroke="#ED1D24"/>
<path d="M580 496L576 500" stroke="#ED1D24"/>
<path d="M568 496L572 500" stroke="#ED1D24"/>
<path d="M580 507L576 503" stroke="#ED1D24"/>
<path d="M574 509.657V504" stroke="#ED1D24"/>
<path d="M565.868 501.854L571.525 501.854" stroke="#ED1D24"/>
<path d="M582.132 501.146L576.475 501.146" stroke="#ED1D24"/>
<path d="M568 507L572 503" stroke="#ED1D24"/>
</g>
<defs>
<clipPath id="clip0_338_285">
<rect width="905" height="610" fill="white"/>
</clipPath>
</defs>
</svg>
