<svg width="750" height="800" viewBox="0 0 750 800" fill="none" xmlns="http://www.w3.org/2000/svg">
<g clip-path="url(#clip0_338_318)">
<path d="M382.948 256.101L470.484 270.393L474.652 278.73C493.707 278.73 609.23 362.097 572.906 562.178C536.582 762.259 669.374 780.123 740.831 780.123" stroke="#ED1D24"/>
<path d="M379.375 289.448L459.17 295.999L472.27 289.448C575.884 358.524 569.333 435.341 550.278 649.713C543.397 727.126 606.849 796.797 745 796.797" stroke="#ED1D24"/>
<path d="M-16.0227 330.536L343.051 349.592V268.011H370.443V336.491L432.969 317.436L465.72 303.144H581.243V330.536L478.225 382.938V586.592H500.258V600.884L386.521 680.678L379.971 667.578L-16.0227 638.995" stroke="#ED1D24"/>
<path d="M-8.28149 352.569L359.129 372.815L365.513 599.693M365.513 599.693L366.871 647.927L59.6032 618.748L106.051 591.356L365.513 599.693Z" stroke="#ED1D24"/>
<path d="M403.195 634.231V603.861H456.192L403.195 634.231Z" stroke="#ED1D24"/>
<path d="M403.195 587.783L387.117 383.534V375.793H439.519V388.893H449.642V587.783H403.195Z" stroke="#ED1D24"/>
<path d="M104.86 360.31L113.792 562.178L363.893 579.447" stroke="#ED1D24"/>
<path d="M4.81934 356.737L13.7515 587.783L78.6588 557.414L73.2995 356.737" stroke="#ED1D24"/>
<path d="M-11.2588 101.872H42.9298V75.0756L50.0756 63.7615L321.614 75.0756V95.9174H333.524L337.692 325.772H321.614V338.873H306.727V346.019" stroke="#ED1D24"/>
<path d="M-10.6633 307.908H1.84174" stroke="#ED1D24"/>
<path d="M2.43726 323.39L306.727 344.232" stroke="#ED1D24"/>
<path d="M154.284 264.438V197.149V192.385L159.048 185.239H208.473L226.337 192.385V257.888L220.382 264.438H154.284Z" stroke="#ED1D24"/>
<path d="M268.617 109.613V80.4348H312.087V109.613H268.617Z" stroke="#ED1D24"/>
<path d="M-2.92212 286.471V265.629H26.2564V286.471H-2.92212Z" stroke="#ED1D24"/>
<path d="M293.031 306.122V285.28H325.187V306.122H293.031Z" stroke="#ED1D24"/>
<path d="M326.378 51.852L51.2665 45.3018L-9.47241 66.1435" stroke="#ED1D24"/>
<path d="M-14.2362 23.2689L321.614 33.3921L344.242 19.1005L349.006 14.9322L-19 6" stroke="#ED1D24"/>
<path d="M442.496 68.5254L365.084 86.3898C373.659 119.26 371.436 184.644 369.252 213.227C424.036 201.317 424.036 200.722 447.856 188.812C452.143 163.088 446.069 97.9024 442.496 68.5254Z" stroke="#ED1D24"/>
<path d="M325.782 51.2564V31.0101C346.426 21.6809 394.62 5.16631 422.25 13.7412C456.788 24.4598 459.17 91.749 458.574 269.797" stroke="#ED1D24"/>
<path d="M366.871 97.1083L420.464 86.3896C424.037 101.872 431.659 137.482 433.564 156.061C435.47 174.64 436.343 182.46 436.542 184.048L370.443 204.295" stroke="#ED1D24"/>
<path d="M399.026 91.749C404.386 108.819 415.343 152.488 416.295 190.599" stroke="#ED1D24"/>
<path d="M354.961 63.166V43.5152C368.776 34.9403 405.577 33.1935 422.25 33.392C425.227 40.5377 425.823 41.1332 429.991 57.2112C414.271 52.4474 373.421 59.1961 354.961 63.166Z" stroke="#ED1D24"/>
<path d="M321.614 73.8848H352.579C359.725 97.9024 371.039 160.467 359.129 218.586C355.557 236.022 355.557 235.26 355.557 267.416" stroke="#ED1D24"/>
<path d="M563.974 303.144L441.306 369.242L438.328 375.197" stroke="#ED1D24"/>
<path d="M387.712 376.388V361.501L496.685 303.144" stroke="#ED1D24"/>
</g>
<defs>
<clipPath id="clip0_338_318">
<rect width="750" height="800" fill="white"/>
</clipPath>
</defs>
</svg>
